<svg xmlns="http://www.w3.org/2000/svg" viewBox="1561 836 976 1035">
  <g transform="translate(0,2707.25) scale(1,-1)">
    <path fill="#c8dde0" fill-rule="evenodd" d="M 2006.50 905.06 C 1985.05 920.93 1959.36 939.76 1949.41 946.90 C 1921.91 966.61 1861.49 1010.53 1843.50 1023.87 C 1834.70 1030.39 1818.50 1042.22 1807.50 1050.16 C 1796.50 1058.09 1780.97 1069.33 1773.00 1075.15 C 1765.03 1080.96 1738.92 1099.86 1715.00 1117.13 C 1691.08 1134.41 1661.60 1155.85 1649.50 1164.77 C 1637.40 1173.70 1621.46 1185.43 1614.08 1190.83 L 1600.67 1200.67 L 1600.85 1386.02 C 1600.95 1487.96 1601.20 1571.53 1601.40 1571.73 C 1601.60 1571.93 1607.38 1567.91 1614.25 1562.80 C 1621.12 1557.68 1631.87 1549.71 1638.12 1545.09 C 1644.38 1540.46 1665.92 1524.47 1686.00 1509.56 C 1706.08 1494.65 1726.21 1479.79 1730.75 1476.55 C 1737.40 1471.80 1739.20 1469.95 1740.00 1467.07 C 1740.62 1464.82 1740.99 1427.74 1740.99 1366.90 L 1741.00 1270.30 L 1750.75 1262.83 C 1756.11 1258.72 1766.00 1251.46 1772.73 1246.70 C 1787.96 1235.91 1814.39 1216.69 1831.50 1203.96 C 1838.65 1198.64 1850.12 1190.25 1857.00 1185.31 C 1863.88 1180.37 1881.42 1167.62 1896.00 1156.97 C 1920.18 1139.30 1957.18 1112.40 1973.12 1100.89 C 1976.63 1098.36 1990.97 1087.81 2005.00 1077.46 C 2042.73 1049.60 2046.36 1047.04 2048.00 1047.02 C 2048.83 1047.01 2052.85 1049.51 2056.94 1052.59 C 2061.02 1055.66 2079.24 1069.01 2097.43 1082.25 C 2115.62 1095.49 2138.82 1112.47 2149.00 1119.98 C 2159.18 1127.50 2174.25 1138.53 2182.50 1144.50 C 2206.60 1161.92 2232.99 1181.21 2255.00 1197.48 C 2266.28 1205.82 2280.90 1216.52 2287.50 1221.25 C 2294.10 1225.99 2308.50 1236.41 2319.50 1244.41 C 2330.50 1252.41 2342.99 1261.33 2347.25 1264.22 L 2355.00 1269.48 L 2355.00 1369.25 C 2355.00 1463.05 2355.10 1469.11 2356.75 1470.47 C 2357.71 1471.26 2369.30 1479.87 2382.50 1489.59 C 2395.70 1499.32 2420.00 1517.33 2436.50 1529.62 C 2483.27 1564.45 2494.10 1572.23 2494.83 1571.51 C 2495.73 1570.60 2496.38 1225.49 2495.51 1211.35 L 2494.81 1200.19 L 2480.66 1189.75 C 2472.87 1184.01 2464.89 1178.23 2462.93 1176.91 C 2460.96 1175.58 2451.29 1168.55 2441.43 1161.28 C 2418.89 1144.65 2387.12 1121.53 2376.00 1113.65 C 2371.32 1110.34 2354.49 1098.15 2338.60 1086.56 C 2322.70 1074.98 2296.60 1055.96 2280.60 1044.29 C 2253.44 1024.49 2232.53 1009.33 2195.40 982.50 C 2187.03 976.45 2172.83 966.13 2163.84 959.56 C 2154.85 953.00 2141.88 943.55 2135.01 938.56 C 2128.13 933.58 2119.76 927.47 2116.39 925.00 C 2113.02 922.53 2103.81 915.78 2095.91 910.00 C 2088.02 904.22 2076.15 895.45 2069.54 890.50 C 2052.84 877.99 2049.79 876.00 2047.50 876.10 C 2046.40 876.15 2027.95 889.18 2006.50 905.06 Z M 2032.31 1125.28 C 2024.51 1130.90 2006.35 1144.28 1991.96 1155.00 C 1977.56 1165.72 1959.65 1178.97 1952.14 1184.42 C 1944.64 1189.88 1933.55 1197.96 1927.50 1202.37 C 1921.45 1206.78 1901.42 1221.36 1883.00 1234.77 C 1864.58 1248.17 1837.70 1267.77 1823.27 1278.32 L 1797.04 1297.50 L 1797.02 1363.12 L 1797.00 1428.73 L 1810.25 1436.72 C 1817.54 1441.11 1829.80 1448.75 1837.50 1453.70 C 1845.20 1458.64 1858.03 1466.73 1866.00 1471.67 C 1873.97 1476.60 1895.35 1490.03 1913.50 1501.49 C 1956.07 1528.38 1984.84 1546.00 1986.19 1546.00 C 1986.84 1546.00 1987.01 1544.81 1986.62 1542.88 C 1986.28 1541.16 1986.00 1530.64 1986.00 1519.51 L 1986.00 1499.26 L 1976.75 1494.54 C 1963.49 1487.76 1954.79 1481.71 1949.01 1475.22 C 1941.37 1466.65 1939.54 1462.17 1939.52 1452.00 C 1939.50 1441.42 1941.63 1436.58 1950.13 1427.95 C 1969.99 1407.78 2006.26 1396.00 2048.50 1396.00 C 2090.68 1396.00 2127.98 1408.17 2146.24 1427.89 C 2154.30 1436.60 2156.41 1441.62 2156.38 1452.00 C 2156.36 1459.18 2155.95 1461.29 2153.73 1465.61 C 2148.37 1476.04 2135.01 1487.05 2118.43 1494.68 L 2110.13 1498.50 L 2109.81 1522.00 C 2109.64 1534.92 2109.63 1545.71 2109.80 1545.96 C 2109.96 1546.22 2111.08 1545.80 2112.30 1545.03 C 2113.51 1544.26 2122.60 1538.60 2132.50 1532.45 C 2170.40 1508.90 2243.23 1463.28 2259.50 1452.90 C 2268.85 1446.93 2281.45 1438.99 2287.50 1435.25 L 2298.50 1428.45 L 2298.76 1362.85 L 2299.01 1297.24 L 2296.26 1295.46 C 2291.22 1292.20 2257.57 1267.73 2253.00 1264.00 C 2250.53 1261.98 2244.00 1257.18 2238.50 1253.34 C 2227.08 1245.37 2203.74 1228.42 2174.00 1206.50 C 2162.72 1198.19 2150.72 1189.39 2147.33 1186.94 C 2141.53 1182.76 2130.76 1174.89 2095.84 1149.26 C 2087.78 1143.34 2074.21 1133.21 2065.68 1126.75 C 2057.15 1120.29 2049.34 1115.01 2048.33 1115.03 C 2047.33 1115.04 2040.11 1119.66 2032.31 1125.28 Z M 2038.50 1438.68 C 2028.30 1440.96 2015.24 1446.67 2011.37 1450.54 L 2009.00 1452.91 L 2009.00 1539.82 L 2009.00 1626.73 L 2002.46 1629.94 C 1971.82 1645.03 1951.07 1672.29 1944.07 1706.66 C 1934.52 1753.55 1961.85 1804.29 2006.77 1823.04 C 2019.32 1828.28 2028.17 1830.09 2044.00 1830.65 C 2060.73 1831.25 2073.41 1829.31 2086.15 1824.20 C 2110.52 1814.43 2132.06 1794.39 2143.15 1771.19 C 2161.83 1732.09 2155.97 1689.32 2127.27 1655.25 C 2121.71 1648.65 2104.04 1635.31 2094.35 1630.39 L 2087.00 1626.66 L 2087.00 1539.78 L 2087.00 1452.90 L 2084.36 1450.46 C 2081.22 1447.55 2071.77 1442.96 2062.99 1440.08 C 2056.99 1438.11 2044.30 1437.38 2038.50 1438.68 Z M 1998.01 1727.77 C 2000.36 1730.13 2002.23 1733.24 2002.97 1736.02 C 2006.34 1748.68 2015.28 1761.12 2024.66 1766.21 C 2027.32 1767.65 2033.20 1770.02 2037.73 1771.48 C 2046.29 1774.24 2049.11 1776.61 2050.51 1782.20 C 2051.24 1785.09 2049.36 1789.46 2046.15 1792.37 C 2041.59 1796.49 2023.83 1792.57 2011.78 1784.78 C 1993.55 1773.00 1980.00 1751.57 1980.00 1734.54 C 1980.00 1729.78 1980.35 1728.89 1983.08 1726.59 C 1987.88 1722.55 1993.21 1722.97 1998.01 1727.77 Z"/>
  </g>
</svg>