<svg xmlns="http://www.w3.org/2000/svg" viewBox="317 365 3462 385">
  <g transform="translate(0,1114.48) scale(1,-1)">
    <path fill="#c8dde0" fill-rule="evenodd" d="M 398.60 465.75 C 398.21 499.16 398.20 528.41 398.57 530.75 L 399.26 535.00 L 378.10 535.00 L 356.94 535.00 L 357.22 548.25 L 357.50 561.50 L 378.25 561.21 L 399.00 560.93 L 399.00 634.88 L 399.00 708.84 L 406.25 709.17 C 410.24 709.35 426.44 709.35 442.25 709.17 L 471.00 708.84 L 471.00 650.42 L 471.00 592.00 L 501.35 592.00 L 531.69 592.00 L 543.73 606.75 C 550.35 614.86 558.33 624.37 561.46 627.87 C 564.59 631.38 571.36 639.26 576.49 645.37 C 581.62 651.49 590.83 662.35 596.95 669.50 C 603.07 676.65 612.77 688.19 618.52 695.13 C 624.26 702.08 629.68 708.05 630.56 708.38 C 631.44 708.72 648.78 709.00 669.08 709.00 L 706.00 709.00 L 706.00 699.07 C 706.00 693.60 705.52 687.86 704.94 686.32 C 704.36 684.77 701.74 681.25 699.11 678.50 C 695.00 674.20 668.02 643.10 654.00 626.51 C 642.18 612.51 627.97 596.03 622.99 590.56 C 619.97 587.23 612.79 578.99 607.06 572.25 C 601.32 565.51 596.22 560.00 595.72 560.00 C 595.23 560.00 597.70 556.74 601.23 552.75 C 604.75 548.76 609.63 543.02 612.07 539.98 C 614.51 536.95 620.25 530.09 624.84 524.73 L 633.18 515.00 L 647.72 515.00 L 662.26 515.00 L 661.80 504.50 C 661.54 498.72 661.01 493.68 660.63 493.30 C 660.25 492.92 658.04 493.11 655.73 493.73 C 653.41 494.35 651.41 494.74 651.27 494.61 C 650.87 494.20 672.44 467.87 689.24 448.26 C 697.90 438.16 705.26 428.80 705.60 427.48 C 705.93 426.15 706.01 420.66 705.77 415.28 L 705.34 405.50 L 667.76 405.24 L 630.18 404.98 L 623.35 413.74 C 619.60 418.56 611.10 429.03 604.48 437.00 C 597.86 444.97 591.17 453.17 589.62 455.22 L 586.81 458.94 L 574.65 459.22 L 562.50 459.50 L 562.18 463.98 C 562.01 466.44 562.15 469.99 562.50 471.86 L 563.14 475.26 L 568.10 474.67 L 573.05 474.09 L 562.31 487.29 C 556.40 494.56 548.18 504.56 544.03 509.52 C 539.89 514.48 535.60 519.74 534.50 521.21 C 532.52 523.85 532.32 523.88 516.44 524.57 C 507.61 524.95 493.77 524.93 485.69 524.53 L 471.00 523.79 L 471.00 508.46 L 471.00 493.12 L 475.25 492.56 C 477.59 492.25 481.30 491.89 483.50 491.75 C 487.38 491.51 487.51 491.38 487.82 487.60 C 488.02 485.16 487.65 483.39 486.82 482.87 C 486.09 482.41 482.24 482.02 478.25 482.02 L 471.00 482.00 L 471.00 443.50 L 471.00 405.00 L 435.16 405.00 L 399.31 405.00 L 398.60 465.75 Z M 425.99 539.75 C 425.99 541.81 425.70 547.21 425.35 551.75 L 424.70 560.00 L 412.85 560.00 L 401.00 560.00 L 401.00 548.00 L 401.00 536.00 L 413.50 536.00 L 426.00 536.00 L 425.99 539.75 Z M 768.90 405.44 C 768.66 405.68 768.57 457.76 768.71 521.19 C 768.85 584.61 768.97 652.76 768.98 672.63 L 769.00 708.76 L 775.25 709.24 C 778.69 709.50 794.89 709.49 811.25 709.21 L 841.00 708.70 L 841.00 556.85 L 841.00 405.00 L 805.17 405.00 C 785.46 405.00 769.14 405.20 768.90 405.44 Z M 903.00 557.01 L 903.00 709.03 L 938.75 708.76 L 974.50 708.50 L 974.75 590.75 L 975.01 473.00 L 1070.34 473.00 C 1122.78 473.00 1173.18 472.70 1182.34 472.34 L 1199.00 471.69 L 1199.00 438.34 L 1199.00 405.00 L 1051.00 405.00 L 903.00 405.00 L 903.00 557.01 Z M 1243.39 556.75 L 1243.50 708.50 L 1279.25 708.76 L 1315.00 709.03 L 1315.00 591.01 L 1315.00 473.00 L 1401.84 473.00 C 1449.60 473.00 1500.22 472.70 1514.34 472.34 L 1540.00 471.68 L 1540.00 438.34 L 1540.00 405.00 L 1391.64 405.00 L 1243.29 405.00 L 1243.39 556.75 Z M 1634.50 406.48 C 1612.12 410.75 1596.79 422.55 1586.12 443.74 C 1581.18 453.55 1580.03 460.31 1580.01 479.61 L 1580.00 496.73 L 1584.64 497.36 C 1587.19 497.71 1603.17 498.00 1620.14 498.00 L 1651.00 498.00 L 1651.00 485.25 L 1651.00 472.50 L 1733.50 472.46 L 1816.00 472.41 L 1816.00 498.21 L 1816.00 524.00 L 1740.75 524.04 C 1699.36 524.06 1658.53 524.47 1650.00 524.95 C 1625.85 526.32 1613.54 531.16 1599.88 544.65 C 1592.00 552.43 1586.94 560.60 1583.23 571.50 L 1580.51 579.50 L 1580.50 617.00 C 1580.50 658.50 1580.41 657.77 1587.54 672.00 C 1596.30 689.49 1609.98 701.05 1628.50 706.61 C 1634.05 708.28 1641.41 708.44 1727.50 708.77 C 1824.59 709.13 1834.06 708.82 1844.44 704.94 C 1857.66 699.99 1871.13 688.43 1878.74 675.50 C 1886.10 663.00 1887.26 658.05 1887.78 636.76 C 1888.17 620.69 1888.03 617.95 1886.73 617.45 C 1885.90 617.13 1869.76 617.24 1850.86 617.69 L 1816.50 618.50 L 1816.22 630.25 L 1815.94 642.00 L 1733.47 642.00 L 1651.00 642.00 L 1651.00 617.05 L 1651.00 592.10 L 1740.25 591.73 C 1839.42 591.32 1835.13 591.61 1850.75 584.45 C 1864.83 578.00 1875.06 567.64 1882.00 552.81 C 1887.35 541.38 1887.97 535.92 1887.95 500.00 C 1887.94 464.68 1887.23 455.77 1883.82 447.75 C 1876.24 429.92 1865.71 418.79 1849.33 411.29 C 1836.23 405.30 1842.06 405.61 1737.50 405.36 C 1660.83 405.19 1640.09 405.41 1634.50 406.48 Z M 2005.00 406.50 C 1997.47 408.01 1989.40 411.04 1983.00 414.74 C 1971.60 421.35 1957.81 438.39 1954.07 450.50 C 1950.26 462.84 1950.00 469.75 1950.00 558.44 C 1950.00 630.92 1950.24 646.16 1951.51 653.62 C 1956.10 680.54 1978.43 702.80 2005.52 707.47 C 2013.34 708.82 2030.12 708.98 2135.85 708.76 L 2257.20 708.50 L 2257.68 681.50 C 2257.94 666.65 2257.86 651.69 2257.50 648.25 L 2256.84 642.00 L 2138.76 642.00 L 2020.67 642.00 L 2021.34 593.25 C 2021.70 566.44 2022.00 528.41 2022.00 508.75 L 2022.00 473.00 L 2125.75 472.88 C 2182.81 472.81 2235.70 472.47 2243.27 472.13 L 2257.04 471.50 L 2257.48 457.00 C 2257.72 449.03 2257.64 434.06 2257.30 423.75 L 2256.70 405.00 L 2134.10 405.09 C 2037.36 405.17 2010.13 405.46 2005.00 406.50 Z M 2321.00 557.04 L 2321.00 709.07 L 2448.75 708.76 C 2589.93 708.42 2580.42 708.86 2593.88 702.06 C 2601.90 698.01 2613.87 688.31 2618.31 682.26 C 2623.26 675.51 2627.52 666.18 2630.05 656.50 C 2631.99 649.07 2632.15 645.67 2632.24 609.00 C 2632.31 583.57 2631.95 567.25 2631.22 563.18 C 2630.58 559.62 2627.88 552.24 2625.04 546.29 C 2620.58 536.95 2618.97 534.72 2611.24 527.10 C 2604.97 520.91 2600.58 517.54 2595.68 515.16 C 2586.25 510.58 2578.39 508.00 2573.84 508.00 C 2571.73 508.00 2570.00 507.66 2570.00 507.24 C 2570.00 506.82 2573.04 502.64 2576.75 497.94 C 2615.94 448.36 2626.90 434.22 2629.24 430.20 C 2631.74 425.91 2631.98 424.61 2631.99 415.25 L 2632.00 405.00 L 2595.69 405.00 C 2568.18 405.00 2558.99 405.30 2557.76 406.25 C 2556.87 406.94 2546.77 419.50 2535.32 434.17 C 2507.14 470.27 2488.33 494.29 2483.44 500.42 L 2479.38 505.50 L 2436.19 505.76 L 2393.00 506.02 L 2393.00 455.51 L 2393.00 405.00 L 2357.00 405.00 L 2321.00 405.00 L 2321.00 557.04 Z M 2561.00 608.00 L 2561.00 642.00 L 2477.00 642.00 L 2393.00 642.00 L 2393.00 608.00 L 2393.00 574.00 L 2477.00 574.00 L 2561.00 574.00 L 2561.00 608.00 Z M 2697.67 405.67 C 2696.84 406.50 2696.80 703.65 2697.63 706.75 L 2698.23 709.00 L 2840.62 709.00 L 2983.00 709.00 L 2983.00 675.50 L 2983.00 642.00 L 2876.61 642.00 C 2780.51 642.00 2770.16 641.85 2769.61 640.42 C 2769.27 639.55 2769.00 628.30 2769.00 615.42 L 2769.00 592.00 L 2854.51 592.00 L 2940.03 592.00 L 2939.76 558.25 L 2939.50 524.50 L 2869.00 524.50 C 2830.22 524.50 2791.86 524.39 2783.75 524.25 L 2769.00 524.00 L 2769.00 498.25 L 2769.00 472.50 L 2875.75 472.50 L 2982.50 472.50 L 2982.76 438.75 L 2983.03 405.00 L 2840.68 405.00 C 2762.39 405.00 2698.03 405.30 2697.67 405.67 Z M 3044.81 405.75 C 3044.64 406.16 3044.64 474.56 3044.80 557.75 L 3045.10 709.00 L 3187.56 709.00 L 3330.03 709.00 L 3329.76 675.75 L 3329.50 642.50 L 3223.25 642.25 L 3117.00 641.99 L 3117.00 617.00 L 3117.00 592.00 L 3202.50 592.00 L 3288.00 592.00 L 3288.00 557.85 L 3288.00 523.70 L 3230.21 524.24 C 3198.42 524.54 3159.94 524.54 3144.71 524.24 L 3117.00 523.70 L 3117.00 498.10 L 3117.00 472.50 L 3182.25 472.82 C 3218.14 472.99 3266.06 472.83 3288.75 472.45 L 3330.00 471.76 L 3330.00 438.38 L 3330.00 405.00 L 3187.56 405.00 C 3109.22 405.00 3044.98 405.34 3044.81 405.75 Z M 3392.70 405.75 C 3392.47 406.16 3392.25 474.51 3392.21 557.64 L 3392.14 708.79 L 3399.32 709.14 C 3403.27 709.34 3420.27 709.28 3437.11 709.00 L 3467.72 708.50 L 3494.05 677.00 C 3508.53 659.67 3526.71 638.01 3534.44 628.85 C 3542.17 619.70 3553.45 606.22 3559.50 598.90 C 3565.55 591.58 3574.57 580.85 3579.54 575.05 C 3584.51 569.25 3590.81 561.76 3593.54 558.42 C 3596.27 555.08 3604.25 545.50 3611.27 537.14 C 3618.29 528.79 3625.65 519.71 3627.61 516.97 C 3629.58 514.24 3631.37 512.00 3631.59 512.00 C 3631.82 512.00 3632.00 515.81 3632.00 520.47 C 3632.00 527.38 3631.74 528.84 3630.58 528.39 C 3628.04 527.42 3625.09 529.94 3623.99 534.04 C 3622.65 539.00 3623.23 540.00 3627.42 540.00 L 3630.72 540.00 L 3631.36 546.15 C 3631.71 549.53 3632.00 587.56 3632.00 630.66 L 3632.00 709.03 L 3667.75 708.76 L 3703.50 708.50 L 3703.76 660.75 L 3704.02 613.00 L 3721.51 613.00 L 3739.00 613.00 L 3739.00 600.65 L 3739.00 588.29 L 3731.35 587.65 C 3727.14 587.29 3719.27 587.00 3713.85 587.00 L 3704.01 587.00 L 3703.76 496.25 L 3703.50 405.50 L 3666.50 405.24 L 3629.50 404.98 L 3624.50 411.39 C 3619.83 417.36 3591.94 450.66 3562.32 485.63 C 3555.27 493.95 3547.03 503.73 3544.00 507.35 C 3539.17 513.14 3538.20 513.85 3536.00 513.23 C 3534.62 512.84 3531.07 512.56 3528.11 512.60 C 3521.89 512.68 3520.00 514.35 3520.00 519.73 C 3520.00 522.70 3520.46 523.28 3524.05 524.80 L 3528.10 526.52 L 3521.41 534.51 C 3517.73 538.91 3509.29 549.03 3502.64 557.00 C 3492.96 568.62 3466.36 599.80 3464.25 602.00 C 3463.98 602.28 3463.90 597.33 3464.06 591.00 C 3464.22 584.67 3464.27 540.24 3464.18 492.25 L 3464.00 405.00 L 3428.56 405.00 C 3409.07 405.00 3392.93 405.34 3392.70 405.75 Z M 3701.00 600.00 L 3701.00 612.00 L 3688.50 612.00 L 3676.00 612.00 L 3676.00 600.55 L 3676.00 589.11 L 3680.75 588.74 C 3683.36 588.53 3688.99 588.28 3693.25 588.18 L 3701.00 588.00 L 3701.00 600.00 Z"/>
  </g>
</svg>